<svg width="120" height="120" viewBox="0 0 120 120" fill="none" xmlns="http://www.w3.org/2000/svg">
  <rect width="120" height="120" rx="26" fill="url(#paint0_linear_1_2)"/>
  <path d="M28 64C28 49.6406 39.6406 38 54 38H62C76.3594 38 88 49.6406 88 64V65H28V64Z" fill="white" fill-opacity="0.95"/>
  <path d="M34 68H82L91 80H25L34 68Z" fill="white" fill-opacity="0.9"/>
  <circle cx="42" cy="82" r="8" fill="#EAF7F0"/>
  <circle cx="74" cy="82" r="8" fill="#EAF7F0"/>
  <path d="M46 44L57 29H75L67 44H46Z" fill="#DFF7EA"/>
  <path d="M32 63H88C86.2203 57.3704 80.8757 53 74.5 53H45.5C39.1243 53 33.7797 57.3704 32 63Z" fill="#F4FFF9" fill-opacity="0.8"/>
  <defs>
    <linearGradient id="paint0_linear_1_2" x1="12" y1="8" x2="102" y2="110" gradientUnits="userSpaceOnUse">
      <stop stop-color="#1E7C63"/>
      <stop offset="1" stop-color="#0A4739"/>
    </linearGradient>
  </defs>
</svg>
